<svg xmlns="http://www.w3.org/2000/svg" width="414" height="414" viewBox="0 0 414 414">
  <g id="Twitter_Pensil" transform="translate(72.552 31.402)">
    <g id="Group_1933" data-name="Group 1933" transform="translate(-72.552 -31.402)">
      <rect id="Rectangle_8018" data-name="Rectangle 8018" width="414" height="414" fill="#fff"/>
      <path id="white_background" d="M164.059,38.244c.111,1.6.111,3.2.111,4.819,0,49.246-37.49,106.042-106.042,106.042v-.03A105.508,105.508,0,0,1,1,132.367a75.809,75.809,0,0,0,8.871.539,74.837,74.837,0,0,0,46.287-15.985A37.316,37.316,0,0,1,21.339,91.04,37.149,37.149,0,0,0,38.165,90.4a37.272,37.272,0,0,1-29.9-36.531v-.472a37.033,37.033,0,0,0,16.915,4.664A37.316,37.316,0,0,1,13.649,8.3a105.779,105.779,0,0,0,76.81,38.936,37.3,37.3,0,0,1,63.511-33.992,74.786,74.786,0,0,0,23.667-9.048,37.408,37.408,0,0,1-16.383,20.612,74.121,74.121,0,0,0,21.4-5.867A75.714,75.714,0,0,1,164.059,38.244Z" transform="translate(115.172 131.699)" fill="#1d9bf0"/>
    </g>
  </g>
</svg>
